<?xml version="1.0" encoding="utf-8"?>
<!-- Generator: Adobe Illustrator 23.0.5, SVG Export Plug-In . SVG Version: 6.00 Build 0)  -->
<svg version="1.1" id="logo" xmlns:svgjs="http://svgjs.com/svgjs"
	 xmlns="http://www.w3.org/2000/svg" xmlns:xlink="http://www.w3.org/1999/xlink" x="0px" y="0px" viewBox="0 0 659.2 664.7"
	 style="enable-background:new 0 0 659.2 664.7;" xml:space="preserve">
	<path fill="#ffffff" d="M143.3,251H93.4c-8.2,0-14.9,6.7-14.9,14.9l0,0v305.4c0,8.2,6.7,14.9,14.9,14.9h301c8.2,0,14.9-6.7,14.9-14.9V265.9
		c0-8.2-6.7-14.9-14.9-14.9H280.3v-78.5h143.6c35.3,0,63.9,28.6,63.9,63.9v364.5c0,35.3-28.6,63.9-63.9,63.9l0,0H63.9
		C28.6,664.7,0,636.1,0,600.9l0,0V236.4c0-35.3,28.6-63.9,63.9-63.9h79.4V251z"/>
	<path fill="#ffffff" d="M515.9,413.8h49.9c8.2,0,14.9-6.7,14.9-14.9V93.4c0-8.2-6.7-14.9-14.9-14.9h-301c-8.2,0-14.9,6.7-14.9,14.9v305.4
		c0,8.2,6.7,14.9,14.9,14.9h114.1v78.5H235.3c-35.3,0-63.9-28.6-63.9-63.9V63.9C171.4,28.6,200,0,235.3,0h360.1
		c35.3,0,63.9,28.6,63.9,63.9c0,0,0,0,0,0v364.5c0,35.3-28.6,63.9-63.9,63.9c0,0,0,0,0,0h-79.4V413.8z M143.3,172.5V251H93.4"/>
</svg>
