<?xml version="1.0" encoding="utf-8"?>
<!-- Generator: Adobe Illustrator 23.0.5, SVG Export Plug-In . SVG Version: 6.00 Build 0)  -->
<svg version="1.1" id="logo" xmlns:svgjs="http://svgjs.com/svgjs"
	 xmlns="http://www.w3.org/2000/svg" xmlns:xlink="http://www.w3.org/1999/xlink" x="0px" y="0px" viewBox="0 0 3440 664.7"
	 style="enable-background:new 0 0 3440 664.7;" xml:space="preserve">
<g id="symbol" fill="#ffffff" transform="translate(-5.377117493275521, -5.003831652033809) scale(1.0007663304067618)">
	<path d="M148.6,255.8H98.7c-8.2,0-14.9,6.7-14.9,14.9l0,0v305.2c0,8.2,6.7,14.9,14.9,14.9h300.8c8.2,0,14.9-6.7,14.9-14.9V270.7
		c0-8.2-6.7-14.9-14.9-14.9h-114v-78.4H429c35.2,0,63.8,28.6,63.8,63.8v364.2c0,35.2-28.6,63.8-63.8,63.8l0,0H69.2
		c-35.2,0-63.8-28.6-63.8-63.8l0,0V241.2c0-35.2,28.6-63.8,63.8-63.8h79.4V255.8z"/>
	<path d="M520.9,418.5h49.9c8.2,0,14.9-6.7,14.9-14.9V98.3c0-8.2-6.7-14.9-14.9-14.9H270c-8.2,0-14.9,6.7-14.9,14.9v305.2
		c0,8.2,6.7,14.9,14.9,14.9h114v78.4H240.5c-35.2,0-63.8-28.6-63.8-63.8V68.8c0-35.2,28.6-63.8,63.8-63.8h359.8
		c35.2,0,63.8,28.6,63.8,63.8c0,0,0,0,0,0v364.2c0,35.2-28.6,63.8-63.8,63.8c0,0,0,0,0,0h-79.4V418.5z M148.6,177.4v78.4H98.7"/>
</g>
<rect id="divider" fill="#ffffff" x="808.1" width="10.8" height="664.7"/>
<path id="ativos" fill="#ffffff" d="M1009.4,460.4c15.4,5.7,33.4,8.5,54,8.5c17.9,0,33.8-3,47.5-9c13.7-6.1,24.1-14.5,31.5-25.2
	s11.1-22.9,11.1-36.7c0-14.5-3.8-26.1-11.6-34.7c-7.7-8.6-17.2-14.9-28.3-19c-11.1-4.1-25.6-8.1-43.5-12.3l-16.6-4.1
	c-20.7-5.2-36.7-11.6-48.1-19.2c-11.4-7.6-17.2-19.3-17.2-35.1c0-18.5,6.6-32.8,19.8-43c13.1-10.3,31.5-15.4,55.1-15.4
	c15.5,0,29.7,2.7,42.4,8c12.8,5.2,25.5,13.7,38,25.2l7.7-12.9c-22.4-23.6-51.8-35.4-88.2-35.4c-18.5,0-34.5,3-48.1,9.1
	c-13.7,6-24.2,14.5-31.6,25.4c-7.4,11-11.1,23.7-11.1,38.2c0,16.5,4.6,29.5,13.7,39.1c9.1,9.6,19.5,16.5,31.2,20.7
	c11.7,4.2,28,8.7,48.9,13.7c15.7,3.7,28.3,7.2,37.9,10.6c9.4,3.3,17.3,8.2,23.8,14.8c6.4,6.5,9.6,14.9,9.6,25.2
	c0,17.9-6.4,31.9-19.3,41.9c-12.9,9.9-31.1,14.9-54.5,14.9c-19,0-35.1-2.5-48.3-7.5c-13.3-5.1-26.4-13.7-39.5-25.7l-7.7,12.9
	C980.1,445.8,993.9,454.7,1009.4,460.4z M1207.3,465.9h15.1V203.2h-15.1V465.9z M1491.8,465.9l-33.9-93
	c-3.5-10.1-7.9-17.8-13.3-23.1c-5.4-5.2-12-8.5-19.6-9.7c16.5-4.4,29.2-12.3,38.2-23.6c8.9-11.3,13.4-25.5,13.4-42.4
	c0-22.9-7.4-40.4-22.1-52.5c-14.8-12.2-35.6-18.3-62.7-18.3H1294v262.7h15.1V346.3h81.6c15.3,0,26.8,2.1,34.5,6.5
	c7.7,4.3,13.9,12.8,18.6,25.6l32.1,87.5H1491.8z M1392.2,331.6h-82.7v-114h82.7c45.2,0,67.9,18.7,67.9,56.1c0,19-5.8,33.4-17.1,43.2
	C1431.5,326.6,1414.5,331.6,1392.2,331.6z M1546.4,465.9h15.1V203.2h-15.1V465.9z M1656.6,442.9c16.8,17.3,41.6,26,74.3,26
	c32.5,0,57.1-8.6,74-26c16.8-17.3,25.2-42.9,25.2-76.6V203.2h-15.5v165.7c0,28-7.1,49.2-21.2,63.5c-14.2,14.2-35.1,21.4-62.6,21.4
	c-56.3,0-84.5-28.3-84.5-84.9V203.2h-15.1v163.1C1631.3,400,1639.7,425.5,1656.6,442.9z M1924.5,460.4c15.4,5.7,33.4,8.5,54,8.5
	c17.9,0,33.8-3,47.5-9c13.6-6.1,24.1-14.5,31.5-25.2s11.1-22.9,11.1-36.7c0-14.5-3.8-26.1-11.6-34.7c-7.7-8.6-17.2-14.9-28.3-19
	c-11.1-4.1-25.6-8.1-43.5-12.3l-16.6-4.1c-20.7-5.2-36.7-11.6-48.1-19.2s-17.2-19.3-17.2-35.1c0-18.5,6.6-32.8,19.8-43
	c13.1-10.3,31.5-15.4,55.1-15.4c15.5,0,29.7,2.7,42.4,8c12.8,5.2,25.5,13.7,38,25.2l7.7-12.9c-22.4-23.6-51.8-35.4-88.2-35.4
	c-18.5,0-34.5,3-48.1,9.1c-13.7,6-24.2,14.5-31.6,25.4c-7.4,11-11.1,23.7-11.1,38.2c0,16.5,4.6,29.5,13.7,39.1
	c9.1,9.6,19.5,16.5,31.2,20.7c11.7,4.2,28,8.7,48.9,13.7c15.7,3.7,28.3,7.2,37.9,10.6c9.4,3.3,17.3,8.2,23.8,14.8
	c6.4,6.5,9.6,14.9,9.6,25.2c0,17.9-6.4,31.9-19.3,41.9c-12.9,9.9-31.1,14.9-54.5,14.9c-19,0-35.1-2.5-48.3-7.5
	c-13.3-5.1-26.4-13.7-39.5-25.7l-7.7,12.9C1895.3,445.8,1909.1,454.7,1924.5,460.4z"/>
<path id="sirius" fill="#ffffff" d="M2406.7,463.8h16.6l-112.9-262.7h-15.2l-112.8,262.7h16.6l31-72.7h145.4L2406.7,463.8z M2236.2,376.3l66.4-155
	l66.5,155H2236.2z M2507.5,463.8h15.1V215.1h97v-14h-208.8v14h96.7V463.8z M2659.9,463.8h15.1V201.1h-15.1V463.8z M2940,201.1
	l-104.1,242.8l-104.4-242.8h-16.2l112.6,262.7h15.5l113.3-262.7H2940z M3033.8,450.5c17.3,10.8,37.7,16.2,61.1,16.2
	c23.6,0,44.1-5.4,61.4-16.2c17.3-10.8,30.6-26.3,39.9-46.6c9.2-20.3,13.9-44.3,13.9-71.8s-4.6-51.4-13.9-71.4
	c-9.2-20.1-22.5-35.5-39.9-46.3c-17.3-10.8-37.8-16.2-61.4-16.2c-23.6,0-44.1,5.4-61.3,16.2c-17.3,10.8-30.5,26.3-39.7,46.5
	c-9.2,20.1-13.8,44.1-13.8,71.6s4.6,51.4,13.8,71.6C3003.2,424.2,3016.5,439.7,3033.8,450.5z M3167.3,420.2
	c-17.3,20.9-41.3,31.4-72.3,31.4c-31,0-55.1-10.5-72.3-31.6c-17.3-21-25.8-50.3-25.8-88c-0.1-37.6,8.5-66.9,25.6-87.6
	c17.1-20.8,41.3-31.2,72.5-31.2c31.2,0,55.4,10.3,72.5,31s25.7,50,25.7,87.8S3184.5,399.4,3167.3,420.2z M3295.8,458.3
	c15.4,5.7,33.4,8.5,54.1,8.5c17.9,0,33.7-3,47.4-9c13.7-6.1,24.2-14.5,31.6-25.2c7.4-10.7,11.1-22.9,11.1-36.7
	c0-14.5-3.9-26.1-11.7-34.7c-7.7-8.6-17.1-14.9-28.2-19c-11.1-4.1-25.6-8.1-43.6-12.3l-16.6-4.1c-20.7-5.2-36.7-11.6-48.1-19.2
	c-11.4-7.6-17.1-19.3-17.1-35.1c0-18.5,6.6-32.8,19.7-43c13.1-10.3,31.6-15.4,55.2-15.4c15.5,0,29.6,2.7,42.4,8
	c12.8,5.2,25.5,13.7,38,25.2l7.7-12.9c-22.4-23.6-51.8-35.4-88.2-35.4c-18.5,0-34.5,3-48.2,9.1c-13.7,6-24.1,14.5-31.5,25.4
	c-7.4,11-11.1,23.7-11.1,38.2c0,16.5,4.5,29.5,13.7,39.1c9.1,9.6,19.5,16.5,31.1,20.7c11.7,4.2,28,8.7,48.9,13.7
	c15.8,3.7,28.4,7.2,37.9,10.6c9.4,3.3,17.4,8.2,23.8,14.8c6.3,6.5,9.6,14.9,9.6,25.2c0,17.9-6.5,31.9-19.4,41.9
	c-12.9,9.9-31.1,14.9-54.4,14.9c-19,0-35.1-2.5-48.3-7.5c-13.4-5.1-26.5-13.7-39.6-25.7l-7.7,12.9
	C3266.6,443.6,3280.5,452.6,3295.8,458.3z"/>
</svg>
